Jump_normalized_Precision Landing17_filtered_grf
version=1
nRows=15
nColumns=37
inDegrees=yes
endheader
time		1_ground_force_vx		1_ground_force_vy		1_ground_force_vz		1_ground_force_px		1_ground_force_py		1_ground_force_pz		1_ground_torque_x		1_ground_torque_y		1_ground_torque_z		2_ground_force_vx		2_ground_force_vy		2_ground_force_vz		2_ground_force_px		2_ground_force_py		2_ground_force_pz		2_ground_torque_x		2_ground_torque_y		2_ground_torque_z		3_ground_force_vx		3_ground_force_vy		3_ground_force_vz		3_ground_force_px		3_ground_force_py		3_ground_force_pz		3_ground_torque_x		3_ground_torque_y		3_ground_torque_z		4_ground_force_vx		4_ground_force_vy		4_ground_force_vz		4_ground_force_px		4_ground_force_py		4_ground_force_pz		4_ground_torque_x		4_ground_torque_y		4_ground_torque_z		
0.572833		0.000000		0.000000		0.000000		0.080263		0.000000		0.311382		0.000000		0.000000		-0.000000		0.000000		0.000000		0.000000		-0.141987		0.000000		0.397500		0.000000		-0.000000		0.000000		-22.931807		428.833410		-84.465005		0.352110		1.254568		1.894636		1.144560		-21.403716		4.215771		-3.339518		257.439991		-48.689654		-0.289138		1.264288		1.904749		2.835591		25.202855		33.598595		
0.576596		-0.000000		0.000000		0.000000		0.080263		0.000000		0.311382		0.000000		0.000000		-0.000000		0.000000		0.000000		0.000000		-0.141987		0.000000		0.397500		0.000000		-0.000000		0.000000		-23.550575		419.698460		-88.792913		0.352296		1.254665		1.894545		1.170805		-20.865105		4.414293		-3.361350		234.404061		-45.105156		-0.289194		1.264318		1.904666		2.718136		22.842012		30.546181		
0.580359		-0.000000		0.000000		0.000000		0.080263		0.000000		0.311382		0.000000		0.000000		-0.000000		0.000000		0.000000		0.000000		-0.141987		0.000000		0.397500		0.000000		-0.000000		0.000000		-24.370788		409.589306		-92.652166		0.352445		1.254735		1.894455		1.205350		-20.257807		4.582462		-3.857715		210.789812		-40.264958		-0.289257		1.264351		1.904571		2.604631		20.271464		27.507923		
0.584121		-0.000000		-0.000000		-0.000000		0.080263		0.000000		0.311382		-0.000000		-0.000000		0.000000		0.000000		-0.000000		0.000000		-0.141987		0.000000		0.397500		0.000000		-0.000000		-0.000000		-25.291943		398.525876		-95.944123		0.352533		1.254767		1.894387		1.243884		-19.599952		4.718635		-4.842764		187.222278		-34.046779		-0.289313		1.264385		1.904459		2.501237		17.525574		24.562148		
0.587884		-0.000000		-0.000000		-0.000000		0.080263		0.000000		0.311382		-0.000000		-0.000000		0.000000		-0.000000		-0.000000		-0.000000		-0.141987		0.000000		0.397500		-0.000000		0.000000		-0.000000		-26.209817		386.522607		-98.685342		0.352574		1.254775		1.894346		1.281894		-18.904428		4.826595		-6.253866		164.121349		-26.489764		-0.289354		1.264416		1.904331		-0.409473		10.746242		-1.734507		
0.591646		-0.000000		-0.000000		-0.000000		0.080263		0.000000		0.311382		-0.000000		-0.000000		0.000000		-0.000000		-0.000000		-0.000000		-0.141987		0.000000		0.397500		-0.000000		0.000000		-0.000000		-26.977623		373.630135		-100.858977		0.352584		1.254778		1.894330		1.312413		-18.176456		4.906609		-7.984788		141.560119		-17.952466		-0.289379		1.264443		1.904186		-0.505901		8.969484		-1.137551		
0.595409		0.000000		-0.000000		-0.000000		0.080263		0.000000		0.311382		-0.000000		-0.000000		0.000000		-0.000000		-0.000000		-0.000000		-0.141987		0.000000		0.397500		-0.000000		0.000000		-0.000000		-27.458407		359.893627		-102.458915		0.352586		1.254797		1.894324		1.328538		-17.412979		4.957336		-9.922864		119.318340		-9.187464		-0.289395		1.264466		1.904026		-0.600868		7.225581		-0.556425		
0.599172		0.000000		0.000000		0.000000		0.080263		0.000000		0.311382		0.000000		0.000000		-0.000000		-0.000000		0.000000		-0.000000		-0.141987		0.000000		0.397500		-0.000000		0.000000		0.000000		-27.571389		345.329001		-103.393106		0.352585		1.254846		1.894321		1.325980		-16.607787		4.972442		-11.966702		97.141777		-1.276191		-0.289408		1.264489		1.903854		-0.678316		5.507065		-0.072473		
0.602934		0.000000		0.000000		0.000000		0.080263		0.000000		0.311382		0.000000		0.000000		-0.000000		0.000000		0.000000		0.000000		-0.141987		0.000000		0.397500		0.000000		0.000000		0.000000		-27.304381		329.891157		-103.553090		0.352583		1.254921		1.894316		1.304074		-15.755809		4.945757		-14.011856		75.085357		4.626059		-0.289424		1.264516		1.903671		-0.716148		3.838060		0.236384		
0.606697		0.000000		0.000000		0.000000		0.080263		0.000000		0.311382		0.000000		0.000000		-0.000000		0.000000		0.000000		0.000000		-0.141987		0.000000		0.397500		0.000000		-0.000000		0.000000		-26.676172		313.470515		-102.823291		0.352575		1.255015		1.894305		1.264129		-14.854731		4.872580		-15.937170		53.764007		7.665534		-0.289445		1.264550		1.903481		-0.677615		2.287160		0.325896		
0.610460		-0.000000		0.000000		0.000000		0.080263		0.000000		0.311382		0.000000		0.000000		-0.000000		0.000000		0.000000		0.000000		-0.141987		0.000000		0.397500		0.000000		-0.000000		0.000000		-25.672717		295.943401		-101.100801		0.352561		1.255109		1.894277		1.206306		-13.905741		4.750506		-17.613946		34.353603		7.713552		-0.289470		1.264589		1.903284		-0.498392		0.972539		0.218300		
0.614222		-0.000000		-0.000000		-0.000000		0.080263		0.000000		0.311382		-0.000000		0.000000		0.000000		0.000000		-0.000000		0.000000		-0.141987		0.000000		0.397500		0.000000		-0.000000		-0.000000		-24.225968		277.209992		-98.267796		0.352546		1.255183		1.894217		1.128471		-12.912737		4.577412		-18.927493		18.346968		5.470013		-0.289492		1.264629		1.903086		-0.124632		0.122288		0.036346		
0.617985		-0.000000		-0.000000		-0.000000		0.080263		0.000000		0.311382		-0.000000		-0.000000		0.000000		0.000000		-0.000000		-0.000000		-0.141987		0.000000		0.397500		-0.000000		-0.000000		-0.000000		-22.246566		257.307697		-94.176019		0.352533		1.255222		1.894106		1.027543		-11.884742		4.349880		-19.816237		6.913923		2.231899		-0.289511		1.264667		1.902897		0.153448		-0.053520		-0.017277		
0.621747		-0.000000		-0.000000		-0.000000		0.080263		0.000000		0.311382		-0.000000		-0.000000		0.000000		-0.000000		-0.000000		-0.000000		-0.141987		0.000000		0.397500		-0.000000		0.000000		-0.000000		-19.669635		236.430210		-88.644630		0.352523		1.255219		1.893931		0.901404		-10.834903		4.062320		-20.281848		0.391353		-0.737792		-0.289519		1.264701		1.902729		0.034486		-0.000837		0.001154		
0.625510		0.000000		-0.000000		-0.000000		0.080263		0.000000		0.311382		-0.000000		-0.000000		0.000000		-0.000000		-0.000000		-0.000000		-0.141987		0.000000		0.397500		-0.000000		0.000000		-0.000000		-16.518150		214.936942		-81.536867		0.352517		1.255185		1.893700		0.751595		-9.779872		3.710019		-20.403634		-2.032835		-2.687658		-0.289513		1.264735		1.902594		-0.095877		-0.009553		-0.012630		
